<svg width="38" height="38" viewBox="0 0 38 38" fill="none" xmlns="http://www.w3.org/2000/svg">
<g clip-path="url(#clip0_47_74)">
<path d="M14.4373 27.2401C21.3577 27.2401 26.9678 21.63 26.9678 14.7097C26.9678 7.78928 21.3577 2.1792 14.4373 2.1792C7.51694 2.1792 1.90686 7.78928 1.90686 14.7097C1.90686 21.63 7.51694 27.2401 14.4373 27.2401Z" stroke="url(#paint0_linear_47_74)" stroke-width="4"/>
<path d="M23.1542 23.5627L36.7742 36.8196" stroke="url(#paint1_linear_47_74)" stroke-width="4"/>
<mask id="mask0_47_74" style="mask-type:luminance" maskUnits="userSpaceOnUse" x="2" y="2" width="25" height="25">
<path d="M26.6953 2.4516H2.1792V26.9677H26.6953V2.4516Z" fill="white"/>
</mask>
<g mask="url(#mask0_47_74)">
<path d="M14.4373 26.9677C21.2072 26.9677 26.6953 21.4796 26.6953 14.7097C26.6953 7.93972 21.2072 2.4516 14.4373 2.4516C7.66732 2.4516 2.1792 7.93972 2.1792 14.7097C2.1792 21.4796 7.66732 26.9677 14.4373 26.9677Z" fill="#2C2C2C"/>
<mask id="mask1_47_74" style="mask-type:luminance" maskUnits="userSpaceOnUse" x="7" y="8" width="15" height="14">
<path d="M21.7023 8.17206H7.0824V21.2474H21.7023V8.17206Z" fill="white"/>
</mask>
<g mask="url(#mask1_47_74)">
<path d="M21.6258 18.481L19.2123 21.0688C19.1601 21.1251 19.0968 21.17 19.0265 21.2007C18.9562 21.2313 18.8804 21.2473 18.8037 21.2473H7.36281C7.30824 21.2473 7.25487 21.2313 7.20923 21.2015C7.16359 21.1715 7.12764 21.129 7.10582 21.0789C7.08399 21.0289 7.07722 20.9736 7.08635 20.9198C7.09546 20.866 7.12007 20.8161 7.15714 20.776L9.5679 18.1882C9.6201 18.1321 9.68333 18.0871 9.75362 18.0565C9.82393 18.0259 9.89979 18.0099 9.9765 18.0098H21.4174C21.4724 18.0087 21.5266 18.0239 21.5731 18.0535C21.6195 18.0831 21.6561 18.1257 21.6785 18.1761C21.7008 18.2265 21.7076 18.2823 21.6982 18.3365C21.6888 18.3909 21.6636 18.4411 21.6258 18.481ZM19.2123 13.2687C19.1599 13.2127 19.0967 13.1681 19.0264 13.1374C18.9561 13.1067 18.8804 13.0907 18.8037 13.0903H7.36281C7.30824 13.0903 7.25487 13.1062 7.20923 13.1361C7.16359 13.166 7.12764 13.2086 7.10582 13.2586C7.08399 13.3086 7.07722 13.3639 7.08635 13.4177C7.09546 13.4715 7.12007 13.5215 7.15714 13.5615L9.5679 16.1506C9.62031 16.2066 9.68357 16.2513 9.75382 16.2821C9.82408 16.3127 9.89985 16.3287 9.9765 16.3291H21.4174C21.4719 16.3288 21.525 16.3127 21.5705 16.2828C21.6158 16.2527 21.6517 16.2102 21.6733 16.1602C21.695 16.1102 21.7016 16.055 21.6924 16.0014C21.6833 15.9477 21.6587 15.8979 21.6217 15.8578L19.2123 13.2687ZM7.36281 11.4095H18.8037C18.8804 11.4095 18.9562 11.3936 19.0265 11.3629C19.0968 11.3322 19.1601 11.2873 19.2123 11.2311L21.6258 8.64331C21.6541 8.61341 21.6754 8.57762 21.6883 8.5385C21.7011 8.4994 21.7052 8.45793 21.7001 8.41707C21.6951 8.37621 21.6811 8.33697 21.6591 8.30214C21.6371 8.26733 21.6078 8.23779 21.5731 8.21564C21.5266 8.18608 21.4724 8.17093 21.4174 8.17206H9.9765C9.89979 8.17214 9.82393 8.18803 9.75362 8.21872C9.68333 8.24942 9.6201 8.29427 9.5679 8.35048L7.15714 10.9383C7.12007 10.9783 7.09546 11.0283 7.08635 11.0821C7.07722 11.1359 7.08399 11.1912 7.10582 11.2412C7.12764 11.2912 7.16359 11.3338 7.20923 11.3637C7.25487 11.3936 7.30824 11.4095 7.36281 11.4095Z" fill="url(#paint2_linear_47_74)"/>
</g>
</g>
</g>
<defs>
<linearGradient id="paint0_linear_47_74" x1="4.24825" y1="27.5526" x2="26.9028" y2="4.71053" gradientUnits="userSpaceOnUse">
<stop offset="0.08" stop-color="#9945FF"/>
<stop offset="0.3" stop-color="#8752F3"/>
<stop offset="0.5" stop-color="#5497D5"/>
<stop offset="0.6" stop-color="#43B4CA"/>
<stop offset="0.72" stop-color="#28E0B9"/>
<stop offset="0.97" stop-color="#19FB9B"/>
</linearGradient>
<linearGradient id="paint1_linear_47_74" x1="24.3036" y1="37.1358" x2="36.5467" y2="24.4534" gradientUnits="userSpaceOnUse">
<stop offset="0.08" stop-color="#9945FF"/>
<stop offset="0.3" stop-color="#8752F3"/>
<stop offset="0.5" stop-color="#5497D5"/>
<stop offset="0.6" stop-color="#43B4CA"/>
<stop offset="0.72" stop-color="#28E0B9"/>
<stop offset="0.97" stop-color="#19FB9B"/>
</linearGradient>
<linearGradient id="paint2_linear_47_74" x1="8.31621" y1="21.5592" x2="20.3128" y2="8.03449" gradientUnits="userSpaceOnUse">
<stop offset="0.08" stop-color="#9945FF"/>
<stop offset="0.3" stop-color="#8752F3"/>
<stop offset="0.5" stop-color="#5497D5"/>
<stop offset="0.6" stop-color="#43B4CA"/>
<stop offset="0.72" stop-color="#28E0B9"/>
<stop offset="0.97" stop-color="#19FB9B"/>
</linearGradient>
<clipPath id="clip0_47_74">
<rect width="38" height="37.4552" fill="white" transform="translate(0 0.2724)"/>
</clipPath>
</defs>
</svg>
