<svg width="237" height="50" viewBox="0 0 237 50" fill="none" xmlns="http://www.w3.org/2000/svg">
<path fill-rule="evenodd" clip-rule="evenodd" d="M39.4375 0H21.5074H21.1489V0.0029161C9.43607 0.193615 0 9.71318 0 21.4286C0 26.9168 2.07083 31.9232 5.47646 35.7143H5.73386C3.25887 32.4313 1.79228 28.3506 1.79228 23.9286C1.79228 18.1096 4.33182 12.8816 8.36693 9.28479C11.6401 5.77054 16.316 3.57143 21.5074 3.57143H33.7099L39.4375 0ZM39.4304 3.57143L39.7886 3.34813L45.1654 0L34.4118 10.7143L23.6581 10.7143C15.7393 10.7143 9.31986 17.1102 9.31986 25C9.31986 29.2668 11.1973 33.0966 14.174 35.7143H9.31857C7.06857 32.7298 5.73532 29.02 5.73532 25C5.73532 15.1378 13.7596 7.14286 23.6581 7.14286H33.6949L39.4304 3.57143ZM7.87861 50H25.8089H26.1673V49.9971C37.8804 49.8064 47.3164 40.2868 47.3164 28.5714C47.3164 23.0832 45.2454 18.0768 41.8396 14.2857H41.5825C44.0575 17.5687 45.5239 21.6494 45.5239 26.0714C45.5239 31.8904 42.9843 37.1182 38.9493 40.7154C35.6762 44.2293 31.0003 46.4286 25.8089 46.4286H13.6064L7.87861 50ZM7.52757 46.6518L2.15075 50L12.9045 39.2857H23.6581C25.7345 39.2857 27.7078 38.8461 29.4893 38.055L32.1655 40.7211C29.6344 42.0836 26.7369 42.8571 23.6581 42.8571H13.6214L7.88614 46.4286L7.52757 46.6518ZM34.3645 25C34.3645 27.5324 33.4827 29.8596 32.0084 31.6934L37.5468 36.3186C38.2829 36.9336 38.3329 38.0479 37.6546 38.7261C36.9764 39.4043 35.8621 39.3543 35.2472 38.6182L30.6435 33.1057C28.7581 34.731 26.2997 35.7143 23.6109 35.7143C17.6717 35.7143 12.8571 30.9173 12.8571 25C12.8571 19.0827 17.6717 14.2857 23.6109 14.2857C29.5499 14.2857 34.3645 19.0827 34.3645 25ZM30.78 25C30.78 28.9449 27.5702 32.1429 23.6108 32.1429C19.6514 32.1429 16.4417 28.9449 16.4417 25C16.4417 21.0551 19.6514 17.8571 23.6108 17.8571C27.5702 17.8571 30.78 21.0551 30.78 25ZM39.3639 33.6099L36.6964 30.9522C37.5311 29.1402 37.9964 27.1243 37.9964 25C37.9964 20.7332 36.1189 16.9034 33.1423 14.2857H37.9979C40.2479 17.2702 41.5811 20.98 41.5811 25C41.5811 28.1219 40.7768 31.0566 39.3639 33.6099Z" fill="url(#paint0_linear_30_4686)"/>
<mask id="mask0_30_4686" style="mask-type:luminance" maskUnits="userSpaceOnUse" x="20" y="21" width="8" height="8">
<path d="M27.1429 21.7857H20V28.1739H27.1429V21.7857Z" fill="white"/>
</mask>
<g mask="url(#mask0_30_4686)">
<path d="M27.1055 26.8224L25.9263 28.0867C25.9008 28.1142 25.8699 28.1362 25.8355 28.1511C25.8012 28.1661 25.7641 28.1739 25.7267 28.1739H20.137C20.1104 28.1739 20.0842 28.1661 20.062 28.1515C20.0397 28.1369 20.0221 28.1161 20.0114 28.0916C20.0008 28.0672 19.9975 28.0402 20.0019 28.0139C20.0064 27.9876 20.0184 27.9632 20.0365 27.9437L21.2144 26.6793C21.2399 26.6519 21.2707 26.63 21.3051 26.615C21.3394 26.6 21.3765 26.5922 21.414 26.5922H27.0036C27.0305 26.5916 27.057 26.5991 27.0797 26.6135C27.1024 26.628 27.1203 26.6488 27.1312 26.6734C27.1421 26.698 27.1455 26.7253 27.1409 26.7518C27.1363 26.7783 27.124 26.8029 27.1055 26.8224ZM25.9263 24.2758C25.9007 24.2485 25.8698 24.2266 25.8355 24.2116C25.8011 24.1967 25.7641 24.1888 25.7267 24.1886H20.137C20.1104 24.1886 20.0842 24.1964 20.062 24.211C20.0397 24.2256 20.0221 24.2465 20.0114 24.2709C20.0008 24.2953 19.9975 24.3223 20.0019 24.3486C20.0064 24.3749 20.0184 24.3993 20.0365 24.4188L21.2144 25.6838C21.24 25.7112 21.2709 25.733 21.3052 25.7481C21.3395 25.763 21.3765 25.7708 21.414 25.771H27.0036C27.0302 25.7709 27.0562 25.763 27.0784 25.7484C27.1006 25.7337 27.1181 25.7129 27.1287 25.6885C27.1392 25.6641 27.1425 25.6371 27.138 25.6109C27.1335 25.5847 27.1216 25.5603 27.1035 25.5408L25.9263 24.2758ZM20.137 23.3675H25.7267C25.7641 23.3675 25.8012 23.3597 25.8355 23.3447C25.8699 23.3297 25.9008 23.3078 25.9263 23.2803L27.1055 22.016C27.1193 22.0014 27.1297 21.9839 27.136 21.9648C27.1422 21.9457 27.1442 21.9254 27.1418 21.9055C27.1393 21.8855 27.1325 21.8663 27.1217 21.8493C27.111 21.8323 27.0967 21.8178 27.0797 21.807C27.057 21.7926 27.0305 21.7852 27.0036 21.7857H21.414C21.3765 21.7858 21.3394 21.7935 21.3051 21.8085C21.2707 21.8235 21.2399 21.8455 21.2144 21.8729L20.0365 23.1372C20.0184 23.1568 20.0064 23.1812 20.0019 23.2075C19.9975 23.2338 20.0008 23.2608 20.0114 23.2852C20.0221 23.3097 20.0397 23.3305 20.062 23.3451C20.0842 23.3597 20.1104 23.3675 20.137 23.3675Z" fill="url(#paint1_linear_30_4686)"/>
</g>
<path fill-rule="evenodd" clip-rule="evenodd" d="M60.9271 35.7143C66.8661 35.7143 71.6807 30.9173 71.6807 25C71.6807 19.0827 66.8661 14.2857 60.9271 14.2857C54.9879 14.2857 50.1736 19.0827 50.1736 25C50.1736 30.9173 54.9879 35.7143 60.9271 35.7143ZM60.9271 32.1428C64.8864 32.1428 68.0961 28.9449 68.0961 25C68.0961 21.0551 64.8864 17.8571 60.9271 17.8571C56.9679 17.8571 53.7579 21.0551 53.7579 25C53.7579 28.9449 56.9679 32.1428 60.9271 32.1428Z" fill="url(#paint2_linear_30_4686)"/>
<path d="M77.045 35.3571V15.0214H81.0007V35.3571H77.045ZM80.4436 35.3571V31.875H89.2186V35.3571H80.4436ZM103.34 35.8864C101.539 35.8864 100.016 35.5985 98.7714 35.0228C97.5457 34.4471 96.6079 33.6578 95.9579 32.655C95.3079 31.6335 94.9829 30.4821 94.9829 29.2007H98.855C98.855 29.7393 99.0036 30.2685 99.3007 30.7885C99.5979 31.29 100.071 31.6985 100.721 32.0143C101.39 32.33 102.263 32.4878 103.34 32.4878C104.306 32.4878 105.114 32.3485 105.764 32.07C106.414 31.7914 106.896 31.4293 107.212 30.9835C107.528 30.5193 107.686 29.9993 107.686 29.4235C107.686 28.6993 107.379 28.1235 106.766 27.6964C106.154 27.2507 105.206 26.9721 103.925 26.8607L102.142 26.7214C100.192 26.5543 98.6321 25.9507 97.4621 24.9107C96.3107 23.8521 95.735 22.4593 95.735 20.7321C95.735 19.4321 96.0414 18.3178 96.6543 17.3893C97.2671 16.4421 98.1214 15.7178 99.2171 15.2164C100.331 14.6964 101.631 14.4364 103.117 14.4364C104.659 14.4364 105.986 14.7057 107.101 15.2443C108.215 15.7828 109.079 16.5443 109.691 17.5285C110.304 18.4943 110.611 19.6364 110.611 20.955H106.739C106.739 20.3978 106.599 19.8871 106.321 19.4228C106.061 18.94 105.661 18.5593 105.123 18.2807C104.603 17.9835 103.934 17.835 103.117 17.835C102.337 17.835 101.687 17.965 101.167 18.225C100.647 18.485 100.257 18.8378 99.9971 19.2835C99.7371 19.7293 99.6071 20.2121 99.6071 20.7321C99.6071 21.3635 99.8393 21.9207 100.304 22.4035C100.768 22.8678 101.501 23.1371 102.504 23.2114L104.287 23.3785C105.736 23.49 107.008 23.7964 108.104 24.2978C109.199 24.7993 110.044 25.4771 110.639 26.3314C111.251 27.1857 111.558 28.2164 111.558 29.4235C111.558 30.705 111.224 31.8378 110.555 32.8221C109.886 33.7878 108.93 34.54 107.686 35.0785C106.46 35.6171 105.011 35.8864 103.34 35.8864ZM119.353 35.3571V15.0214H123.225V35.3571H119.353ZM122.668 35.3571V32.0143H131.889V35.3571H122.668ZM122.668 26.6935V23.3507H131.165V26.6935H122.668ZM122.668 18.3643V15.0214H131.666V18.3643H122.668ZM138.121 35.3571L145.057 15.0214H151.52L158.651 35.3571H154.584L148.539 17.7235L149.96 18.3364H146.478L147.926 17.7235L142.076 35.3571H138.121ZM142.968 29.9528L144.221 26.61H152.467L153.693 29.9528H142.968ZM165.851 35.3571V14.8821H169.806V35.3571H165.851ZM178.275 35.3571L172.035 26.4985H176.464L182.899 35.3571H178.275ZM168.636 28.56V25.3564H173.818C174.542 25.3564 175.164 25.2078 175.684 24.9107C176.223 24.6135 176.641 24.1957 176.938 23.6571C177.235 23.1185 177.384 22.5057 177.384 21.8185C177.384 21.1128 177.235 20.4907 176.938 19.9521C176.641 19.4135 176.223 18.9957 175.684 18.6985C175.164 18.4014 174.542 18.2528 173.818 18.2528H168.636V14.8821H173.4C175.034 14.8821 176.446 15.1235 177.634 15.6064C178.841 16.0893 179.77 16.8228 180.42 17.8071C181.07 18.7914 181.395 20.0264 181.395 21.5121V21.9578C181.395 23.4621 181.061 24.6971 180.392 25.6628C179.742 26.6285 178.823 27.3528 177.634 27.8357C176.446 28.3185 175.034 28.56 173.4 28.56H168.636ZM198.972 35.8864C197.133 35.8864 195.555 35.5614 194.236 34.9114C192.918 34.2614 191.84 33.4164 191.005 32.3764C190.187 31.3364 189.584 30.2035 189.194 28.9778C188.804 27.7521 188.609 26.5728 188.609 25.44V24.8271C188.609 23.5643 188.804 22.32 189.194 21.0943C189.602 19.8685 190.225 18.7543 191.06 17.7514C191.896 16.7485 192.955 15.95 194.236 15.3557C195.536 14.7428 197.068 14.4364 198.833 14.4364C200.671 14.4364 202.268 14.7707 203.624 15.4393C204.998 16.0893 206.094 17.0178 206.911 18.225C207.728 19.4135 208.22 20.8064 208.387 22.4035H204.404C204.255 21.475 203.921 20.695 203.401 20.0635C202.9 19.4135 202.259 18.9307 201.479 18.615C200.699 18.2807 199.817 18.1135 198.833 18.1135C197.83 18.1135 196.938 18.29 196.158 18.6428C195.378 18.9771 194.728 19.46 194.208 20.0914C193.688 20.7228 193.289 21.4657 193.01 22.32C192.75 23.1743 192.62 24.1214 192.62 25.1614C192.62 26.1643 192.75 27.0928 193.01 27.9471C193.289 28.8014 193.698 29.5535 194.236 30.2035C194.775 30.835 195.434 31.3271 196.214 31.68C197.012 32.0328 197.932 32.2093 198.972 32.2093C200.495 32.2093 201.776 31.8378 202.816 31.095C203.875 30.3335 204.515 29.275 204.738 27.9193H208.722C208.536 29.3678 208.044 30.6957 207.245 31.9028C206.447 33.11 205.351 34.0757 203.958 34.8C202.565 35.5243 200.903 35.8864 198.972 35.8864ZM229.582 35.3571V15.0214H233.538V35.3571H229.582ZM216.238 35.3571V15.0214H220.194V35.3571H216.238ZM219.47 26.9164V23.4343H230.306V26.9164H219.47Z" fill="url(#paint3_linear_30_4686)"/>
<defs>
<linearGradient id="paint0_linear_30_4686" x1="3.99318" y1="51.1929" x2="50.1471" y2="7.1545" gradientUnits="userSpaceOnUse">
<stop offset="0.08" stop-color="#9945FF"/>
<stop offset="0.3" stop-color="#8752F3"/>
<stop offset="0.5" stop-color="#5497D5"/>
<stop offset="0.6" stop-color="#43B4CA"/>
<stop offset="0.72" stop-color="#28E0B9"/>
<stop offset="0.97" stop-color="#19FB9B"/>
</linearGradient>
<linearGradient id="paint1_linear_30_4686" x1="20.6028" y1="28.3263" x2="26.464" y2="21.7185" gradientUnits="userSpaceOnUse">
<stop offset="0.08" stop-color="#9945FF"/>
<stop offset="0.3" stop-color="#8752F3"/>
<stop offset="0.5" stop-color="#5497D5"/>
<stop offset="0.6" stop-color="#43B4CA"/>
<stop offset="0.72" stop-color="#28E0B9"/>
<stop offset="0.97" stop-color="#19FB9B"/>
</linearGradient>
<linearGradient id="paint2_linear_30_4686" x1="51.9886" y1="36.2253" x2="71.7893" y2="16.1875" gradientUnits="userSpaceOnUse">
<stop offset="0.08" stop-color="#9945FF"/>
<stop offset="0.3" stop-color="#8752F3"/>
<stop offset="0.5" stop-color="#5497D5"/>
<stop offset="0.6" stop-color="#43B4CA"/>
<stop offset="0.72" stop-color="#28E0B9"/>
<stop offset="0.97" stop-color="#19FB9B"/>
</linearGradient>
<linearGradient id="paint3_linear_30_4686" x1="88.1914" y1="42.5864" x2="100.442" y2="-16.939" gradientUnits="userSpaceOnUse">
<stop offset="0.08" stop-color="#9945FF"/>
<stop offset="0.3" stop-color="#8752F3"/>
<stop offset="0.5" stop-color="#5497D5"/>
<stop offset="0.6" stop-color="#43B4CA"/>
<stop offset="0.72" stop-color="#28E0B9"/>
<stop offset="0.97" stop-color="#19FB9B"/>
</linearGradient>
</defs>
</svg>
